<svg xmlns="http://www.w3.org/2000/svg" viewBox="0 0 678.92 428.48"><defs><style>.cls-1{fill:#343434;}.cls-2{fill:#ee7771;}.cls-3{fill:#ece479;}.cls-4{fill:#f1e57f;}.cls-5{fill:#89cda6;}.cls-6{fill:#8fd7e6;}</style></defs><g id="Camada_2" data-name="Camada 2"><g id="Camada_1-2" data-name="Camada 1"><path class="cls-1" d="M83.92,338.51H33.57a.69.69,0,0,0-.78.78V351a.34.34,0,0,0,.39.39l23,1.17a35.62,35.62,0,0,1,12.49,3,34.59,34.59,0,0,1,10.25,7,33.6,33.6,0,0,1,6.92,10.05,29.31,29.31,0,0,1,2.54,12.11v11.51a31.1,31.1,0,0,1-2.54,12.49A32.57,32.57,0,0,1,68.7,425.94a31.13,31.13,0,0,1-12.49,2.54H3.71v-31H54.45c.65,0,1-.1,1.07-.29a2.82,2.82,0,0,0,.1-.88v-12.1c0-.39-.26-.58-.78-.58H32.4a31.61,31.61,0,0,1-12.69-2.54,34.74,34.74,0,0,1-10.24-6.73,30.75,30.75,0,0,1-6.93-10A29.94,29.94,0,0,1,0,352.17V339.88a31.83,31.83,0,0,1,2.54-12.59A32.4,32.4,0,0,1,9.47,317,32.74,32.74,0,0,1,19.71,310a31.61,31.61,0,0,1,12.69-2.54H83.92Z"/><path class="cls-1" d="M118.26,397.45V338.51H96.39v-31h76.53v31H151.05v58.94h21.87v31H96.39v-31Z"/><path class="cls-1" d="M624.27,397.45V338.51H602.4v-31h76.52v31H657.05v58.94h21.87v31H602.4v-31Z"/><path class="cls-1" d="M264.63,338.51H214.28a.69.69,0,0,0-.78.78V351a.34.34,0,0,0,.39.39l23,1.17a35.51,35.51,0,0,1,12.49,3,34.33,34.33,0,0,1,10.25,7,33.45,33.45,0,0,1,6.93,10.05,29.31,29.31,0,0,1,2.54,12.11v11.51a31.1,31.1,0,0,1-2.54,12.49,32.63,32.63,0,0,1-17.18,17.17,31.06,31.06,0,0,1-12.49,2.54H184.43v-31h50.74c.65,0,1-.1,1.07-.29a2.82,2.82,0,0,0,.1-.88v-12.1c0-.39-.27-.58-.78-.58H213.11a31.56,31.56,0,0,1-12.68-2.54,34.66,34.66,0,0,1-10.25-6.73,30.57,30.57,0,0,1-6.92-10,29.77,29.77,0,0,1-2.54-12.2V339.88a31.65,31.65,0,0,1,2.54-12.59A32.21,32.21,0,0,1,190.18,317,32.67,32.67,0,0,1,200.43,310a31.56,31.56,0,0,1,12.68-2.54h51.52Z"/><path class="cls-1" d="M280.51,428.48v-121h31.8l24.79,49.18,25-49.18H393.7v121H360.91V377.74l-19.84,24h-7.94l-19.84-24v50.74Z"/><path class="cls-1" d="M467.71,385H440.19v11.9a.52.52,0,0,0,.59.59h44.49v31H407.4v-121h77.87v31H441.56c-.91,0-1.37.39-1.37,1.17v14.25h27.52Z"/><path class="cls-1" d="M501.76,307.48H558A31.1,31.1,0,0,1,570.46,310a32.36,32.36,0,0,1,17.18,17.27,32,32,0,0,1,2.53,12.59v56.4a31.26,31.26,0,0,1-2.53,12.49,32.63,32.63,0,0,1-17.18,17.17A31.1,31.1,0,0,1,558,428.48H501.76Zm32.79,31v58.94h21.86a.86.86,0,0,0,1-1V339.29c0-.52-.19-.78-.58-.78Z"/><path class="cls-2" d="M295.71,185.52a32.65,32.65,0,0,1-65.3,0c0-5,.54-16.91-3.27-25.22-2.29-5-10.59-12.8-15.39-15.31-8-4.11-20.12-3.2-25.07-3.2a32.69,32.69,0,1,1,0-65.37c4.95,0,17.07.91,25.14-3.28,4.8-2.51,13-10.36,15.32-15.31,3.81-8.31,3.27-20.19,3.27-25.14a32.65,32.65,0,1,1,60.5,17.06l-.08.08a32,32,0,0,1-10.74,10.66A31.83,31.83,0,0,1,263,65.37c-4.95,0-16.84-.53-25.07,3.2C233,70.86,225.08,79.16,222.56,84c-4.19,8.08-3.27,20.12-3.27,25.14s-.92,17.07,3.27,25.15c2.52,4.8,10.44,13.1,15.39,15.39,8.23,3.73,20.12,3.2,25.07,3.2A32.68,32.68,0,0,1,295.71,185.52Z"/><path class="cls-3" d="M322.37,81.22c-.07.07-.15.07-.15.15a31.26,31.26,0,0,0-10.44,10.52s-.15.07-.15.15a171.92,171.92,0,0,0-31.54-31.55,32,32,0,0,0,10.74-10.66l.08-.08A175.5,175.5,0,0,0,322.37,81.22Z"/><path class="cls-4" d="M448.54,32.69a32.67,32.67,0,0,1-32.68,32.68c-4.95,0-17.07-.91-25.07,3.2C383.4,72.38,367.33,92,367.33,92s-.08-.15-.16-.15a31.47,31.47,0,0,0-10.51-10.52c0-.08-.08-.08-.15-.15S376.16,65.14,380,57.75c4.12-8,3.2-20.11,3.2-25.06a32.69,32.69,0,1,1,65.37,0Z"/><path class="cls-5" d="M372.13,109.1A32.65,32.65,0,1,1,311.63,92c0-.08.15-.15.15-.15a31.26,31.26,0,0,1,10.44-10.52c0-.08.08-.08.15-.15a32.75,32.75,0,0,1,34.14,0c.07.07.15.07.15.15a31.47,31.47,0,0,1,10.51,10.52c.08,0,.08.07.16.15A32.56,32.56,0,0,1,372.13,109.1Z"/><path class="cls-6" d="M525,109.1a32.68,32.68,0,0,1-32.68,32.69c-5,0-16.85-.58-25.15,3.2-4.95,2.25-12.89,10.56-15.39,15.39-4.18,8.1-3.2,20.11-3.2,25.14a32.69,32.69,0,0,1-65.37,0c0-5,1-17-3.2-25.14-3.69-7.16-22.78-22.78-22.78-22.78a7.68,7.68,0,0,1,0-10.82,7.59,7.59,0,0,1,10.74,0s15.68,19.14,22.86,22.86c8,4.15,20.12,3.2,25.07,3.2s16.84.55,25.07-3.2c4.94-2.26,12.87-10.57,15.39-15.39,4.22-8.1,3.27-20.19,3.27-25.15a32.69,32.69,0,0,1,65.37,0Z"/></g></g></svg>